<svg xmlns="http://www.w3.org/2000/svg" viewBox="0 0 320 320" role="img" aria-labelledby="title desc">
  <title id="title">NFA Document Tracking System Logo</title>
  <desc id="desc">Stylized National Food Authority mark with Department of Agriculture reference</desc>
  <rect width="320" height="320" rx="36" fill="#ffffff"/>
  <circle cx="160" cy="160" r="138" fill="#ffffff" stroke="#2f3b97" stroke-width="10"/>
  <path d="M72 242c0-67 33-118 88-143-22 21-34 50-34 86 0 32 10 60 29 86-55-16-83-52-83-29z" fill="#2f3b97" opacity="0.96"/>
  <path d="M248 242c0-67-33-118-88-143 22 21 34 50 34 86 0 32-10 60-29 86 55-16 83-52 83-29z" fill="#ef233c" opacity="0.96"/>
  <path d="M160 84c-16 15-25 40-25 72 0 37 12 71 34 98-8 3-16 4-24 4-41 0-74-47-74-103 0-33 13-62 33-80 14-12 33-19 56-19z" fill="#ffffff"/>
  <path d="M160 84c16 15 25 40 25 72 0 37-12 71-34 98 8 3 16 4 24 4 41 0 74-47 74-103 0-33-13-62-33-80-14-12-33-19-56-19z" fill="#ffffff"/>
  <text x="160" y="46" text-anchor="middle" font-family="Arial, sans-serif" font-size="16" font-weight="700" fill="#111111">DEPARTMENT OF AGRICULTURE</text>
  <text x="160" y="288" text-anchor="middle" font-family="Arial, sans-serif" font-size="16" font-weight="700" fill="#2f3b97">NATIONAL FOOD AUTHORITY</text>
  <text x="160" y="306" text-anchor="middle" font-family="Arial, sans-serif" font-size="12" font-weight="700" fill="#2f3b97">1972</text>
</svg>
